<?xml version="1.0" encoding="UTF-8" standalone="no"?>
<!-- Created with Inkscape (http://www.inkscape.org/) -->

<svg
   width="210mm"
   height="297mm"
   viewBox="0 0 210 297"
   version="1.1"
   id="svg1"
   inkscape:version="1.4 (86a8ad7, 2024-10-11)"
   sodipodi:docname="Logo cnc.svg"
   xmlns:inkscape="http://www.inkscape.org/namespaces/inkscape"
   xmlns:sodipodi="http://sodipodi.sourceforge.net/DTD/sodipodi-0.dtd"
   xmlns="http://www.w3.org/2000/svg"
   xmlns:svg="http://www.w3.org/2000/svg">
  <sodipodi:namedview
     id="namedview1"
     pagecolor="#505050"
     bordercolor="#ffffff"
     borderopacity="1"
     inkscape:showpageshadow="0"
     inkscape:pageopacity="0"
     inkscape:pagecheckerboard="1"
     inkscape:deskcolor="#505050"
     inkscape:document-units="mm"
     inkscape:zoom="1.1100293"
     inkscape:cx="270.26314"
     inkscape:cy="530.61663"
     inkscape:window-width="1920"
     inkscape:window-height="1013"
     inkscape:window-x="-9"
     inkscape:window-y="-9"
     inkscape:window-maximized="1"
     inkscape:current-layer="layer1" />
  <defs
     id="defs1">
    <inkscape:path-effect
       effect="bspline"
       id="path-effect4"
       is_visible="true"
       lpeversion="1.3"
       weight="33.333333"
       steps="2"
       helper_size="0"
       apply_no_weight="true"
       apply_with_weight="true"
       only_selected="false"
       uniform="false" />
    <inkscape:path-effect
       effect="bspline"
       id="path-effect3"
       is_visible="true"
       lpeversion="1.3"
       weight="33.333333"
       steps="2"
       helper_size="0"
       apply_no_weight="true"
       apply_with_weight="true"
       only_selected="false"
       uniform="false" />
  </defs>
  <g
     inkscape:label="Calque 1"
     inkscape:groupmode="layer"
     id="layer1">
    <path
       id="rect1"
       style="opacity:1;stroke-width:0.12977;fill:#ffdd55"
       d="m 45.919161,105.7584 0.06253,106.85343 92.135981,-13.6431 -21.38113,-17.64285 -9.80612,6.42028 0.1478,-31.27354 35.16013,17.04082 -0.24908,-45.04325 z m 96.322289,68.35139 -12.31243,1.8619 12.42973,19.41535 z" />
    <path
       id="rect2"
       style="opacity:1;fill:#ffcc00;stroke-width:0.125599"
       d="M 46.026131 105.79974 L 26.319324 109.90905 L 25.573116 208.74747 L 33.919377 191.92937 L 45.886088 212.61803 L 44.320292 212.33329 L 46.026131 212.6449 L 46.026131 105.79974 z " />
    <path
       id="path3"
       style="opacity:1;fill:#ffcc00;fill-opacity:1;stroke-width:0.216835"
       d="m 76.092232,88.845302 c -1.839637,0.01316 -3.531189,0.200066 -5.007445,0.58601 -9.448049,2.470045 -9.846535,9.268675 -10.48347,19.880968 l 60.546813,14.46797 c -0.37216,-0.38321 -1.23548,-0.66443 -1.65647,-3.15239 -0.74311,-4.39129 -1.59259,-13.35683 -11.14662,-20.675741 C 100.28383,93.776784 86.026279,88.774227 76.092232,88.845302 Z m 44.221658,34.339058 c 0.28472,0.29317 1.87206,0.71407 2.14813,0.63437 z M 78.533944,94.301817 c 7.75137,-0.110573 19.561462,4.282096 26.315186,9.267133 7.71855,5.69719 8.71349,12.04867 9.8275,18.51948 L 68.602571,111.25491 c 0.318291,-8.29951 -0.436286,-14.930764 6.88453,-16.618747 0.915102,-0.210999 1.939504,-0.318551 3.046843,-0.334346 z"
       sodipodi:nodetypes="sscccsscccssccss" />
    <path
       style="opacity:1;fill:#554400;fill-opacity:1;stroke-width:0.137"
       d="m 25.623385,208.65182 16.565816,-2.32398 -8.253113,-14.36102 z"
       id="path15" />
  </g>
</svg>
